<svg width="391" height="180" viewBox="0 0 391 180" fill="none" xmlns="http://www.w3.org/2000/svg">
<path d="M155.923 0.243652H196.547C206.779 0.243652 215.079 8.44469 215.079 18.5678V179.782H179.489V51.1157C179.489 43.0172 172.854 36.4564 164.655 36.4564H155.91V0.243652H155.923Z" fill="white"/>
<path d="M39.5814 118.21H85.1115C92.3312 118.21 99.1442 116.827 105.525 114.072C111.906 111.316 117.499 107.523 122.291 102.693C127.083 97.8616 130.858 92.1722 133.629 85.6242C136.4 79.0633 137.785 72.0027 137.785 64.404V54.0502C137.785 46.6308 136.4 39.6599 133.641 33.0991C130.87 26.551 127.108 20.8616 122.329 16.0307C117.549 11.1997 111.982 7.3683 105.614 4.51075C99.2459 1.66602 92.4456 0.243652 85.2513 0.243652H0V37.7506H62.8676C66.5537 37.7506 70.2399 37.8018 73.9387 37.8787C77.6248 37.9684 81.3999 38.0069 85.2513 38.0069C89.7763 38.0069 93.7167 39.8137 97.0723 43.4401C99.7289 46.3104 101.089 50.2315 101.089 54.1911V64.3912C101.089 68.6967 99.4874 72.5922 96.3097 76.0392C93.1193 79.4862 89.4332 81.2161 85.2386 81.2161L48.2883 80.8829H36.2131V80.7676L17.9604 80.601C8.07136 80.5113 0 88.738 0 98.9252V179.782H39.5814V118.21Z" fill="url(#paint0_linear_1154_430)"/>
<path d="M286.361 143.698V130.473C286.361 124.681 288.496 119.902 292.767 116.16C295.843 113.456 299.898 112.06 304.016 112.06H333.938C341.462 112.06 348.568 110.688 355.228 107.908C361.889 105.153 367.659 101.347 372.578 96.5032C377.485 91.6594 381.336 85.9571 384.145 79.3835C386.942 72.8099 388.352 65.8133 388.352 58.3683V53.9603C388.352 46.5281 386.954 39.5316 384.145 32.9451C381.336 26.3715 377.485 20.6692 372.578 15.8254C367.672 10.9817 361.889 7.13747 355.228 4.27992C348.568 1.43518 341.475 0 333.938 0H246.945V36.3152H333.938C338.844 36.3152 343 37.9939 346.419 41.3768C349.839 44.7469 351.542 48.9371 351.542 53.9475V58.3555C351.542 63.1993 349.839 67.2741 346.419 70.5546C343 73.8478 338.844 75.4752 333.938 75.4752H303.978C296.263 75.4752 289.132 76.9104 282.56 79.7551C275.989 82.5998 270.244 86.4953 265.35 91.4288C260.444 96.3622 256.592 102.154 253.783 108.805C250.974 115.455 249.576 122.682 249.576 130.461V180H286.221H286.361H390.717V143.685H286.361V143.698Z" fill="white"/>
<defs>
<linearGradient id="paint0_linear_1154_430" x1="0" y1="0.243652" x2="173.783" y2="132.47" gradientUnits="userSpaceOnUse">
<stop stop-color="#C191FF"/>
<stop offset="0.425654" stop-color="#5786FF"/>
<stop offset="1" stop-color="#6DFFEE"/>
</linearGradient>
</defs>
</svg>
