<svg width="48" height="48" viewBox="0 0 48 48" fill="none" xmlns="http://www.w3.org/2000/svg">
<path fill-rule="evenodd" clip-rule="evenodd" d="M24 0C37.2562 0 48 10.7438 48 24C48 37.2562 37.2562 48 24 48C10.7438 48 0 37.2562 0 24C0 10.7484 10.7438 0 24 0Z" fill="#7524F9"/>
<path fill-rule="evenodd" clip-rule="evenodd" d="M38.925 16.607V18.3039C38.925 18.6367 38.7469 18.9461 38.4609 19.1102L32.9953 22.2648L37.875 25.0727C38.5265 25.4477 38.925 26.1414 38.925 26.8914V31.4102C38.925 32.1602 38.5219 32.8539 37.8703 33.2289L25.0359 40.593C24.389 40.9633 23.5922 40.9633 22.9406 40.5883L18.7406 38.1602C18.4312 37.982 18.4312 37.532 18.7406 37.3539L32.6062 29.3711C32.7609 29.282 32.7609 29.057 32.6062 28.968L27.4547 25.9914C27.1687 25.8227 26.8125 25.8227 26.5219 25.9914L12.4312 34.1102C12.2156 34.232 11.9484 34.2367 11.7328 34.1102L10.139 33.1961C9.48748 32.8211 9.08435 32.1273 9.08435 31.3727V29.5211C9.08435 29.2727 9.22029 29.0383 9.43591 28.9164L29.6344 17.3102C29.789 17.2211 29.789 16.9961 29.6344 16.907L24.4781 13.9211C24.1922 13.7523 23.8359 13.7523 23.5453 13.9211L9.78279 21.8383C9.47341 22.0164 9.08435 21.7914 9.08435 21.4352V16.5836C9.08435 15.8336 9.48748 15.1398 10.139 14.7648L22.9734 7.40078C23.6203 7.03047 24.4172 7.03047 25.064 7.40078L37.8703 14.7883C38.5219 15.168 38.925 15.857 38.925 16.607Z" fill="white"/>
</svg>
