<svg width="12" height="10" viewBox="0 0 12 10" fill="none" xmlns="http://www.w3.org/2000/svg">
<path d="M10.1741 1.26011C10.1708 1.25375 10.1653 1.24877 10.1585 1.24605C9.38052 0.89466 8.55947 0.644091 7.71596 0.500615C7.7083 0.499212 7.70038 0.500224 7.69334 0.503506C7.68629 0.506788 7.68048 0.512173 7.67672 0.518896C7.56492 0.718642 7.46343 0.923814 7.37264 1.13363C6.46338 0.997762 5.5385 0.997762 4.62924 1.13363C4.53784 0.923281 4.43473 0.718058 4.32036 0.518896C4.31644 0.512319 4.31059 0.507058 4.30359 0.503797C4.29659 0.500537 4.28875 0.499428 4.28109 0.500615C3.43749 0.64379 2.6164 0.894377 1.83847 1.24607C1.83181 1.24885 1.82619 1.25359 1.82239 1.25965C0.266692 3.54658 -0.159473 5.77728 0.0495892 7.98036C0.0501773 7.98576 0.0518625 7.99099 0.0545446 7.99573C0.0572266 8.00048 0.0608508 8.00464 0.0652015 8.00798C0.971071 8.66823 1.9843 9.1722 3.06164 9.49839C3.06923 9.50063 3.07733 9.50053 3.08486 9.4981C3.09238 9.49567 3.09897 9.49104 3.10374 9.48481C3.33513 9.17489 3.54016 8.84671 3.71674 8.50361C3.71917 8.4989 3.72056 8.49374 3.72081 8.48846C3.72106 8.48319 3.72018 8.47792 3.71821 8.47301C3.71625 8.4681 3.71325 8.46365 3.70941 8.45996C3.70557 8.45628 3.70098 8.45343 3.69595 8.45161C3.37263 8.32984 3.05963 8.18304 2.75986 8.0126C2.75442 8.00945 2.74985 8.00503 2.74655 7.99973C2.74325 7.99442 2.74133 7.9884 2.74096 7.98219C2.74058 7.97599 2.74177 7.96979 2.74441 7.96414C2.74705 7.95849 2.75106 7.95356 2.75609 7.9498C2.81917 7.90342 2.88115 7.85562 2.94199 7.80643C2.94732 7.8021 2.95378 7.79933 2.96063 7.79842C2.96748 7.79751 2.97445 7.7985 2.98076 7.80128C4.94463 8.68355 7.07078 8.68355 9.0114 7.80128C9.01772 7.79832 9.02477 7.79719 9.03172 7.79802C9.03867 7.79885 9.04524 7.8016 9.05066 7.80596C9.11157 7.85542 9.17371 7.90338 9.23703 7.9498C9.24209 7.95353 9.24613 7.95842 9.24881 7.96405C9.25149 7.96967 9.25273 7.97586 9.2524 7.98207C9.25207 7.98828 9.2502 7.99431 9.24694 7.99964C9.24368 8.00496 9.23914 8.00941 9.23372 8.0126C8.93464 8.18448 8.62135 8.33118 8.29719 8.45115C8.29216 8.45304 8.28758 8.45595 8.28377 8.45969C8.27996 8.46344 8.27699 8.46793 8.27506 8.47289C8.27314 8.47784 8.2723 8.48313 8.27259 8.48843C8.27289 8.49372 8.27432 8.49889 8.27678 8.50361C8.45632 8.8448 8.66105 9.17257 8.88931 9.48427C8.89395 9.49066 8.90051 9.49546 8.90806 9.49798C8.91562 9.50051 8.92379 9.50063 8.93142 9.49833C10.0107 9.17325 11.0257 8.66923 11.9327 8.00798C11.9371 8.00481 11.9408 8.00075 11.9435 7.99606C11.9462 7.99138 11.9478 7.98618 11.9483 7.98082C12.1986 5.43383 11.5293 3.22141 10.1741 1.26011V1.26011ZM4.01003 6.63891C3.41876 6.63891 2.93158 6.1048 2.93158 5.44884C2.93158 4.79288 3.40932 4.25873 4.01003 4.25873C4.61544 4.25873 5.09791 4.79752 5.08846 5.4488C5.08846 6.1048 4.61071 6.63891 4.01003 6.63891V6.63891ZM7.99739 6.63891C7.40615 6.63891 6.91896 6.1048 6.91896 5.44884C6.91896 4.79288 7.3967 4.25873 7.99739 4.25873C8.60284 4.25873 9.08529 4.79752 9.07585 5.4488C9.07585 6.1048 8.60284 6.63891 7.99739 6.63891Z" fill="white"/>
</svg>
