<svg width="66" height="52" viewBox="0 0 66 52" fill="none" xmlns="http://www.w3.org/2000/svg">
<path fill-rule="evenodd" clip-rule="evenodd" d="M55.6034 4.6043C53.329 1.69807 49.8438 0 46.1534 0H19.8467C16.1563 0 12.6711 1.69807 10.3967 4.6043L1.0598 16.5348C0.464389 17.2956 0.198566 18.1583 0.202434 19H0.199951V47C0.199951 49.7614 2.43853 52 5.19995 52H60.7999C63.5614 52 65.7999 49.7614 65.7999 47V19H65.7977C65.8015 18.1583 65.5357 17.2956 64.9403 16.5348L55.6034 4.6043ZM19.8467 2H46.1534C49.2287 2 52.133 3.41506 54.0284 5.83692L63.3653 17.7674C64.3927 19.0802 63.4574 21 61.7903 21H49.0001C46.7909 21 45.0001 22.7909 45.0001 25V27C45.0001 28.1046 44.1046 29 43.0001 29H23.0001C21.8955 29 21.0001 28.1046 21.0001 27V25C21.0001 22.7909 19.2092 21 17.0001 21H4.20982C2.54274 21 1.60738 19.0802 2.63481 17.7674L11.9717 5.83692C13.8671 3.41505 16.7714 2 19.8467 2ZM63.7999 22.469C63.224 22.8035 62.5446 23 61.7903 23H49.0001C47.8955 23 47.0001 23.8954 47.0001 25V27C47.0001 29.2091 45.2092 31 43.0001 31H23.0001C20.7909 31 19.0001 29.2091 19.0001 27V25C19.0001 23.8954 18.1046 23 17.0001 23H4.20982C3.45544 23 2.77598 22.8034 2.19995 22.4689V47C2.19995 48.6569 3.5431 50 5.19995 50H60.7999C62.4568 50 63.7999 48.6569 63.7999 47V22.469Z" fill="#4E556D"/>
</svg>
