<svg width="48" height="48" viewBox="0 0 48 48" fill="none" xmlns="http://www.w3.org/2000/svg">
<path d="M42 40V8H33L28.5 12H24H19.5L15 8H6V40H12L18.5 33H24H29.5L36 40H42Z" stroke="white" stroke-width="1.2"/>
<path d="M6 12H20" stroke="white" stroke-width="1.2"/>
<path d="M28 12H42" stroke="white" stroke-width="1.2"/>
<path d="M31.1559 21.9999L27.0001 17.8449L27.8452 17L32.001 21.155L36.1548 17.0019L36.9999 17.8469L32.846 21.9999L37 26.1531L36.1549 26.998L32.001 22.8449L27.8451 27L27 26.1551L31.1559 21.9999Z" fill="white"/>
<path d="M16 17C13.2386 17 11 19.2386 11 22C11 24.7614 13.2386 27 16 27C18.7614 27 21 24.7614 21 22C21 19.2386 18.7614 17 16 17Z" stroke="white" stroke-width="1.2"/>
</svg>
