<svg width="48" height="48" viewBox="0 0 48 48" fill="none" xmlns="http://www.w3.org/2000/svg">
<path d="M6 20L24 32L42 20V40H6V20Z" stroke="white" stroke-width="1.2"/>
<path d="M38 23V8H10V23" stroke="white" stroke-width="1.2"/>
<path d="M24.1159 14.8809L24.0059 14.9809L23.8849 14.8723C23.275 14.2965 22.4764 13.9846 21.6525 14.0006C20.8286 14.0165 20.0417 14.359 19.4528 14.958C19.1514 15.2668 18.9119 15.6347 18.7484 16.0404C18.5848 16.4461 18.5004 16.8815 18.5 17.3214C18.4996 17.7612 18.5833 18.1968 18.7461 18.6028C18.909 19.0088 19.1478 19.3772 19.4487 19.6865L24 24L28.5617 19.6837C28.8591 19.3751 29.0951 19.0085 29.2561 18.605C29.4171 18.2016 29.5 17.7691 29.5 17.3323C29.5 16.8955 29.4171 16.463 29.2561 16.0595C29.0951 15.656 28.8591 15.2895 28.5617 14.9809C27.9733 14.377 27.1847 14.0302 26.3579 14.0116C25.5312 13.993 24.7289 14.3041 24.1159 14.8809Z" stroke="white" stroke-width="1.2"/>
</svg>
