<svg width="24" height="24" viewBox="0 0 24 24" fill="none" xmlns="http://www.w3.org/2000/svg">
<path d="M3 10L12 16L21 10V20H3V10Z" stroke="white"/>
<path d="M19 11.5V4H5V11.5" stroke="white"/>
<path d="M12.0579 7.44043L12.0029 7.49043L11.9425 7.43614C11.6375 7.14824 11.2382 6.99232 10.8262 7.00029C10.4143 7.00826 10.0209 7.17951 9.72641 7.479C9.57569 7.63339 9.45597 7.81735 9.37418 8.0202C9.2924 8.22305 9.25019 8.44075 9.25 8.66068C9.24981 8.88061 9.29164 9.0984 9.37307 9.3014C9.45449 9.5044 9.5739 9.68858 9.72435 9.84326L12 12L14.2809 9.84184C14.4296 9.68753 14.5476 9.50426 14.6281 9.30252C14.7086 9.10078 14.75 8.88453 14.75 8.66613C14.75 8.44773 14.7086 8.23148 14.6281 8.02974C14.5476 7.828 14.4296 7.64474 14.2809 7.49043C13.9866 7.18851 13.5924 7.01511 13.179 7.00581C12.7656 6.99651 12.3644 7.15203 12.0579 7.44043Z" stroke="white"/>
</svg>
