<svg width="58" height="26" viewBox="0 0 58 26" fill="none" xmlns="http://www.w3.org/2000/svg">
<path d="M23.1454 0.0351562H29.1758C30.6947 0.0351562 31.9268 1.21975 31.9268 2.68198V25.9685H26.6436V7.38334C26.6436 6.21356 25.6587 5.26588 24.4417 5.26588H23.1436V0.0351562H23.1454Z" fill="white"/>
<path d="M5.87562 17.0748H12.6343C13.706 17.0748 14.7174 16.8749 15.6646 16.477C16.6118 16.079 17.442 15.5311 18.1533 14.8333C18.8646 14.1355 19.425 13.3137 19.8364 12.3679C20.2477 11.4202 20.4534 10.4004 20.4534 9.30276V7.80721C20.4534 6.73552 20.2477 5.72861 19.8383 4.78094C19.4269 3.83511 18.8684 3.0133 18.159 2.3155C17.4495 1.6177 16.6231 1.06427 15.6778 0.651515C14.7325 0.240609 13.723 0.0351562 12.655 0.0351562H0V5.45282H9.33232C9.8795 5.45282 10.4267 5.46023 10.9758 5.47133C11.5229 5.48429 12.0833 5.48984 12.655 5.48984C13.3268 5.48984 13.9117 5.75082 14.4098 6.27464C14.8042 6.68925 15.0061 7.25563 15.0061 7.82757V9.30091C15.0061 9.92282 14.7683 10.4855 14.2966 10.9834C13.823 11.4813 13.2758 11.7312 12.6532 11.7312L7.16811 11.6831H5.37561V11.6664L2.66611 11.6423C1.19814 11.6294 0 12.8177 0 14.2892V25.9685H5.87562V17.0748Z" fill="white"/>
<path d="M42.5091 20.7563V18.8462C42.5091 18.0095 42.8261 17.3191 43.4601 16.7787C43.9167 16.3881 44.5186 16.1864 45.1299 16.1864H49.5716C50.6886 16.1864 51.7433 15.9883 52.732 15.5867C53.7207 15.1887 54.5774 14.639 55.3076 13.9393C56.0359 13.2397 56.6076 12.416 57.0246 11.4665C57.4397 10.517 57.6491 9.50637 57.6491 8.43098V7.79426C57.6491 6.72072 57.4416 5.71012 57.0246 4.75874C56.6076 3.80921 56.0359 2.98555 55.3076 2.2859C54.5792 1.58625 53.7207 1.03097 52.732 0.61821C51.7433 0.207304 50.6905 0 49.5716 0H36.658V5.24553H49.5716C50.2999 5.24553 50.9169 5.488 51.4244 5.97665C51.932 6.46344 52.1848 7.0687 52.1848 7.79241V8.42913C52.1848 9.12878 51.932 9.71738 51.4244 10.1912C50.9169 10.6669 50.2999 10.902 49.5716 10.902H45.1243C43.979 10.902 42.9204 11.1093 41.945 11.5202C40.9695 11.9311 40.1166 12.4938 39.3902 13.2064C38.6618 13.919 38.0901 14.7556 37.6731 15.7162C37.2561 16.6769 37.0486 17.7208 37.0486 18.8443V26H42.4884H42.5091H58.0001V20.7545H42.5091V20.7563Z" fill="white"/>
</svg>
