<svg width="394" height="180" viewBox="0 0 394 180" fill="none" xmlns="http://www.w3.org/2000/svg">
<path d="M157.233 0.243652H198.198C208.517 0.243652 216.886 8.44469 216.886 18.5678V179.782H180.997V51.1157C180.997 43.0172 174.306 36.4564 166.039 36.4564H157.22V0.243652H157.233Z" fill="white"/>
<path d="M39.914 118.21H85.8267C93.1071 118.21 99.9774 116.827 106.412 114.072C112.846 111.316 118.486 107.523 123.318 102.693C128.15 97.8616 131.957 92.1722 134.752 85.6242C137.546 79.0633 138.943 72.0027 138.943 64.404V54.0502C138.943 46.6308 137.546 39.6599 134.764 33.0991C131.97 26.551 128.176 20.8616 123.357 16.0307C118.537 11.1997 112.923 7.3683 106.502 4.51075C100.08 1.66602 93.2225 0.243652 85.9677 0.243652H0V37.7506H63.3959C67.113 37.7506 70.8301 37.8018 74.56 37.8787C78.2771 37.9684 82.084 38.0069 85.9677 38.0069C90.5308 38.0069 94.5042 39.8137 97.8881 43.4401C100.567 46.3104 101.938 50.2315 101.938 54.1911V64.3912C101.938 68.6967 100.323 72.5922 97.119 76.0392C93.9018 79.4862 90.1847 81.2161 85.9549 81.2161L48.6941 80.8829H36.5174V80.7676L18.1113 80.601C8.13918 80.5113 0 88.738 0 98.9252V179.782H39.914V118.21Z" fill="url(#paint0_linear_247_929)"/>
<path d="M288.767 143.698V130.473C288.767 124.681 290.921 119.902 295.227 116.16C298.329 113.456 302.418 112.06 306.571 112.06H336.744C344.332 112.06 351.497 110.688 358.213 107.908C364.93 105.153 370.749 101.347 375.709 96.5032C380.657 91.6594 384.541 85.9571 387.373 79.3835C390.193 72.8099 391.616 65.8133 391.616 58.3683V53.9603C391.616 46.5281 390.206 39.5316 387.373 32.9451C384.541 26.3715 380.657 20.6692 375.709 15.8254C370.762 10.9817 364.93 7.13747 358.213 4.27992C351.497 1.43518 344.345 0 336.744 0H249.02V36.3152H336.744C341.691 36.3152 345.883 37.9939 349.331 41.3768C352.779 44.7469 354.496 48.9371 354.496 53.9475V58.3555C354.496 63.1993 352.779 67.2741 349.331 70.5546C345.883 73.8478 341.691 75.4752 336.744 75.4752H306.533C298.752 75.4752 291.562 76.9104 284.935 79.7551C278.308 82.5998 272.515 86.4953 267.58 91.4288C262.632 96.3622 258.749 102.154 255.916 108.805C253.083 115.455 251.673 122.682 251.673 130.461V180H288.626H288.767H394V143.685H288.767V143.698Z" fill="white"/>
<defs>
<linearGradient id="paint0_linear_247_929" x1="0.104797" y1="-0.47615" x2="162.116" y2="129.927" gradientUnits="userSpaceOnUse">
<stop stop-color="#B946FF"/>
<stop offset="0.393373" stop-color="#F8537E"/>
<stop offset="1" stop-color="#FFEE6D"/>
</linearGradient>
</defs>
</svg>
