<svg width="12" height="12" viewBox="0 0 12 12" fill="none" xmlns="http://www.w3.org/2000/svg">
<path fill-rule="evenodd" clip-rule="evenodd" d="M7.32514 2.53923L4.19141 1.66211L4.70756 2.48412L4.7081 2.485L4.71096 2.48962L4.72354 2.51028C4.73484 2.52901 4.75173 2.55743 4.77306 2.59448C4.81576 2.66864 4.876 2.77701 4.94453 2.91115C5.08222 3.18069 5.25026 3.54828 5.37748 3.94775C5.51386 4.37598 5.6157 4.72605 5.62324 5.09081C5.6305 5.44234 5.54947 5.82942 5.27406 6.3122C5.17558 6.48322 5.04407 6.69378 4.93523 6.86442C4.88114 6.94924 4.83337 7.02306 4.79915 7.07564L4.75898 7.13715L4.74827 7.15346L4.3612 7.74032L5.75 7.74032V8.70543H4.01141C3.94953 8.70543 3.90363 8.69698 3.86279 8.67916C3.82289 8.66176 3.76744 8.62655 3.69987 8.54437C3.66394 8.50067 3.63904 8.42997 3.62897 8.34413C3.62434 8.30468 3.62379 8.26982 3.62439 8.24565C3.62468 8.23379 3.62523 8.22513 3.62558 8.22052L3.62583 8.21755L3.67558 7.80092H0.625L0.625 8.17592C0.625 8.42648 0.633834 8.7232 0.709263 8.97586C0.858203 9.54804 1.11928 9.98851 1.59774 10.4246C2.10572 10.8875 2.74187 11.0276 2.96692 11.077C3.11927 11.1104 3.32331 11.1182 3.46373 11.1202C3.53929 11.1213 3.60709 11.1207 3.65598 11.1199C3.68051 11.1195 3.70048 11.119 3.71453 11.1187L3.73104 11.1182L3.738 11.1182L8.432 11.1128C8.56725 11.1128 8.87272 11.1091 9.24651 10.8693C9.43267 10.7498 9.59079 10.5889 9.69571 10.4698C9.74997 10.4082 9.79404 10.3532 9.82489 10.3131C9.84037 10.293 9.85268 10.2764 9.86143 10.2645L9.8719 10.25L9.87508 10.2455L9.87614 10.244L9.87684 10.243L9.8776 10.2419L9.8802 10.2381L9.88712 10.2281L9.91321 10.1898C9.93591 10.1563 9.96904 10.107 10.0115 10.0428C10.0964 9.91443 10.2187 9.72622 10.3694 9.48499C10.5165 9.24968 10.5968 9.14184 10.6578 9.07653C10.7121 9.01842 10.757 8.98673 10.8715 8.9104C10.9743 8.84189 11.0459 8.80199 11.0876 8.78072C11.1084 8.77009 11.1216 8.76414 11.1275 8.76161L11.1291 8.76096L11.375 8.67545V7.3002L8.63981 8.07846L8.56768 8.1609L8.56694 8.16172L8.55745 8.17207C8.5475 8.18279 8.53014 8.20124 8.50282 8.22953C8.44811 8.28617 8.35438 8.38127 8.20169 8.53128C8.08981 8.6412 7.99928 8.68074 7.95212 8.69554C7.93057 8.7023 7.91565 8.70464 7.90896 8.70543L6.75 8.70543V7.74032L7.8709 7.74032L8.36383 7.25433L8.36603 7.25219L8.37523 7.24312C8.38283 7.23557 8.3933 7.22503 8.40622 7.21168C8.43205 7.185 8.46786 7.14697 8.51033 7.09902C8.59496 7.00349 8.70784 6.86663 8.8216 6.7001C9.04194 6.37756 9.29851 5.89641 9.30536 5.36616V5.36132C9.30536 4.98907 9.15879 4.62754 8.97643 4.31591C8.79137 3.99967 8.5501 3.70223 8.31771 3.45035C8.08411 3.19717 7.85178 2.98177 7.67844 2.83001C7.59151 2.7539 7.51876 2.69323 7.46726 2.6512C7.44149 2.63018 7.40665 2.60242 7.40665 2.60242L7.38983 2.58918L7.38508 2.58548L7.38287 2.58377L7.32514 2.53923ZM6.09211 3.72016C5.99413 3.41248 5.87605 3.12527 5.76347 2.88095L6.97964 3.22136L6.99309 3.2323C7.03874 3.26954 7.10478 3.3246 7.1844 3.3943C7.34416 3.53418 7.55596 3.73075 7.76649 3.95893C7.97822 4.18842 8.18108 4.44173 8.32912 4.69471C8.4792 4.95118 8.5547 5.17647 8.55535 5.35896C8.55055 5.66751 8.39309 5.99777 8.20231 6.27704C8.11025 6.41179 8.018 6.52373 7.94893 6.6017C7.91457 6.64049 7.88639 6.67037 7.86745 6.68992C7.858 6.69969 7.85088 6.70684 7.84649 6.7112L7.84192 6.71568L7.56335 6.99032L5.74185 6.99032C5.80562 6.88702 5.8692 6.78166 5.92437 6.68584L5.92508 6.6846C6.26141 6.09528 6.38341 5.57534 6.37308 5.07532C6.36301 4.58838 6.22654 4.14227 6.09211 3.72016ZM3.5629 9.3666C3.72381 9.43679 3.87831 9.45543 4.01141 9.45543H7.88727C7.89334 9.45563 7.90012 9.45576 7.90757 9.45576C7.92625 9.45576 7.94918 9.45494 7.97587 9.45247C8.02933 9.44751 8.09765 9.43592 8.17663 9.41115C8.33664 9.36095 8.53046 9.25967 8.72731 9.06628C8.88334 8.91298 8.98188 8.8131 9.04227 8.75059L9.05139 8.74113L10.3184 8.38061C10.2505 8.43031 10.1817 8.48759 10.1099 8.56437C9.99629 8.68592 9.88427 8.84618 9.73344 9.08749C9.58632 9.32289 9.46755 9.50569 9.38592 9.62914C9.34511 9.69086 9.31358 9.73773 9.29244 9.7689L9.26867 9.80378L9.26202 9.81345L9.26141 9.81431L9.25577 9.82211C9.25037 9.8295 9.24182 9.84103 9.23047 9.85578C9.20767 9.88542 9.17422 9.92721 9.13302 9.97396C9.04701 10.0716 8.94244 10.1733 8.84155 10.238C8.7364 10.3054 8.65051 10.3348 8.58811 10.3486C8.5253 10.3625 8.47765 10.3628 8.432 10.3628L3.72391 10.368L3.7104 10.3685L3.70733 10.3686L3.6942 10.3689C3.6825 10.3693 3.6652 10.3697 3.6436 10.37C3.60025 10.3707 3.54043 10.3712 3.47449 10.3703C3.33191 10.3682 3.19744 10.3597 3.12773 10.3444C2.90866 10.2963 2.45073 10.1872 2.10295 9.87026C1.72775 9.52831 1.54488 9.21247 1.43351 8.7809L1.43145 8.77292L1.42904 8.76503C1.41086 8.70554 1.39823 8.63405 1.38978 8.55092H2.9034C2.93316 8.69385 2.9941 8.86691 3.12055 9.0207C3.25338 9.18225 3.40104 9.29599 3.5629 9.3666Z" fill="white"/>
<path d="M4 3.5849L2.40294 6.08035L4.5 6.08035V6.83035H1.0325L4 2.19357L4 3.5849Z" fill="white"/>
<path d="M5.75 1.5C5.75 1.22386 5.97386 1 6.25 1C6.52614 1 6.75 1.22386 6.75 1.5V2.5H5.75L5.75 1.5Z" fill="white"/>
</svg>
