<svg width="12" height="12" viewBox="0 0 12 12" fill="none" xmlns="http://www.w3.org/2000/svg">
<path d="M1 6.25L1 10.5L6 10.5L11 10.5L11 6.25" stroke="white"/>
<path d="M1.44486 2.69683L1.44486 5H0.5L0.5 1L1.3979 1L2.891 3.30317V1L3.83586 1L3.83586 5H2.93796L1.44486 2.69683Z" fill="white"/>
<path d="M5.28677 3.43643L5.28677 5H4.34191L4.34191 1.01084L7.5 1.01084V1.91841L5.28677 1.91841L5.28677 2.58851L7 2.58851V3.43643H5.28677Z" fill="white"/>
<path d="M9.25 1.91841L8 1.91841V1.01084L11.5 1.01084V1.91841L10.25 1.91841V5H9.25V1.91841Z" fill="white"/>
<path d="M7.87506 10.5L4.62488 7.25L1.49994 10.5" stroke="white"/>
<path d="M10.5 10.5L7.1249 6.99984L5.62474 8.5" stroke="white"/>
</svg>
