<svg width="20" height="20" viewBox="0 0 20 20" fill="none" xmlns="http://www.w3.org/2000/svg">
<path d="M13.1167 18.0966L10.9125 15.7966C13.7875 15.4133 16.0875 13.0175 16.0875 10.1425C16.0875 7.36331 13.9792 4.96748 11.2 4.48831L9.1875 2.47581H10.05C14.4583 2.47581 18.0042 5.92581 18.0042 10.1425C18.0042 13.0175 16.2792 15.605 13.8833 16.8508V18.7675L13.1167 18.0966V18.0966ZM11.0083 17.7133C10.7208 17.7133 10.3375 17.8091 9.95417 17.8091C5.54583 17.8091 2 14.3591 2 10.1425C2 7.26748 3.725 4.67998 6.12083 3.43415V1.22998L7.36667 2.47581L9.28333 4.39248C6.3125 4.67998 4.0125 7.17165 4.0125 10.1425C4.0125 13.0175 6.21667 15.4133 9.09167 15.7966L11.0083 17.7133V17.7133Z" fill="white"/>
</svg>
