<svg width="12" height="12" viewBox="0 0 12 12" fill="none" xmlns="http://www.w3.org/2000/svg">
<path d="M11.43 2.53222C11.25 2.61022 11.064 2.67622 10.872 2.73022C11.094 2.48422 11.262 2.19022 11.364 1.87222L11.508 1.42822L11.106 1.66822C10.716 1.90222 10.296 2.06422 9.852 2.16022C9.408 1.72822 8.808 1.48222 8.19 1.48222H8.184C6.87 1.48222 5.802 2.55022 5.802 3.86422C5.802 3.96622 5.808 4.07422 5.82 4.18222C4.182 4.03822 2.652 3.22822 1.614 1.95022L1.452 1.75222L1.326 1.96822C1.11 2.33422 1.002 2.74822 1.002 3.16822C1.002 3.73822 1.206 4.29022 1.572 4.71622C1.458 4.67422 1.35 4.62622 1.248 4.57222L0.99 4.42822V4.75222C0.99 5.60422 1.446 6.38422 2.166 6.81022C2.1 6.80422 2.034 6.79822 1.962 6.78622L1.68 6.74422L1.77 7.01422C2.034 7.83022 2.7 8.43022 3.522 8.61022C2.85 9.03022 2.058 9.25822 1.272 9.25822C1.062 9.25822 0.9 9.25222 0.75 9.23422L0 9.15022L0.636 9.55822C1.674 10.2242 2.874 10.5782 4.104 10.5782H4.122C6.546 10.5782 8.07 9.43222 8.916 8.47222C9.972 7.27222 10.578 5.68822 10.578 4.12222C10.578 4.05622 10.578 3.99022 10.578 3.91822C10.992 3.60022 11.352 3.22222 11.646 2.79022L11.994 2.28622L11.43 2.53222ZM9.588 3.88822C9.594 3.95422 9.594 4.02622 9.594 4.09822V4.11622C9.594 6.38422 7.896 9.58222 4.128 9.58222C4.032 9.58222 3.93 9.58222 3.834 9.57622C4.074 9.44422 4.302 9.29422 4.512 9.12622C4.68 8.99422 4.788 8.80222 4.812 8.58622C4.836 8.37022 4.776 8.16022 4.644 7.99222C4.494 7.80022 4.272 7.69222 4.026 7.68622C3.822 7.68022 3.63 7.63822 3.456 7.55422C3.528 7.49422 3.594 7.42222 3.642 7.33822C3.75 7.15222 3.786 6.93622 3.732 6.72622C3.654 6.42622 3.414 6.19222 3.108 6.13222C2.85 6.07822 2.616 5.95822 2.43 5.77822C2.76 5.67022 2.982 5.36422 2.982 5.01022C2.982 4.74022 2.85 4.48822 2.622 4.33822C2.418 4.20022 2.25 4.01422 2.142 3.79222C3.264 4.62022 4.644 5.11222 6.042 5.17822C6.258 5.17822 6.462 5.09422 6.612 4.93822C6.762 4.78222 6.846 4.58422 6.846 4.36822C6.846 4.31422 6.84 4.26022 6.828 4.20622C6.804 4.09222 6.792 3.97822 6.792 3.86422C6.792 3.09622 7.422 2.46622 8.19 2.46622C8.58 2.46622 8.946 2.62222 9.21 2.90422C9.27 2.97022 9.342 3.02422 9.42 3.06622C9.426 3.25222 9.504 3.43822 9.624 3.57622C9.594 3.67222 9.582 3.78022 9.588 3.88822Z" fill="white"/>
</svg>
