<svg width="12" height="10" viewBox="0 0 12 10" fill="none" xmlns="http://www.w3.org/2000/svg">
<path d="M11.6874 1.72285C11.269 1.90332 10.8138 2.0332 10.3448 2.08379C10.8288 1.79531 11.1966 1.34004 11.3702 0.798633C10.9231 1.06523 10.4173 1.26074 9.89092 1.36191C9.46435 0.906641 8.85869 0.625 8.1874 0.625C6.89541 0.625 5.85635 1.67227 5.85635 2.95742C5.85635 3.13789 5.87822 3.31836 5.91377 3.49199C3.9792 3.39082 2.25381 2.4666 1.10674 1.05156C0.904395 1.39883 0.789551 1.79531 0.789551 2.22871C0.789551 3.03809 1.20107 3.75176 1.82861 4.17148C1.4458 4.15645 1.08486 4.04844 0.774512 3.8748V3.90352C0.774512 5.03691 1.57568 5.97617 2.64346 6.19219C2.44795 6.24277 2.23877 6.27148 2.02959 6.27148C1.87783 6.27148 1.73428 6.25645 1.58936 6.23594C1.88467 7.16016 2.74463 7.83145 3.76865 7.85332C2.96748 8.48086 1.96396 8.85 0.874316 8.85C0.678809 8.85 0.49834 8.84316 0.311035 8.82129C1.34463 9.48438 2.571 9.86719 3.8917 9.86719C8.1792 9.86719 10.5253 6.31523 10.5253 3.23223C10.5253 3.13105 10.5253 3.02988 10.5185 2.92871C10.9724 2.59648 11.3702 2.18496 11.6874 1.72285Z" fill="white"/>
</svg>
