<svg width="12" height="12" viewBox="0 0 12 12" fill="none" xmlns="http://www.w3.org/2000/svg">
<path d="M10.5 9.5V10.75H6.25H2.5L2.5 9.5M10 4V3.25L8 1.25H2.5L2.5 4" stroke="white"/>
<path d="M1 4.75H2.40503C3.28587 4.75 4.01108 5.06127 4.01108 6.04695C4.01108 6.99696 3.27506 7.41523 2.43204 7.41523H1.96298V8.74243H1V4.75ZM2.38017 6.66192C2.84707 6.66192 3.07187 6.44576 3.07187 6.05019C3.07187 5.65462 2.81464 5.50979 2.35315 5.50979H1.96298V6.66192H2.38017ZM4.68873 4.75H5.83869C7.05674 4.75 7.86301 5.33579 7.86301 6.72568C7.86301 8.11558 7.05674 8.74568 5.89165 8.74568H4.68873V4.75ZM5.77925 7.97183C6.42772 7.97183 6.87949 7.67678 6.87949 6.72568C6.87949 5.77459 6.4234 5.51304 5.77925 5.51304H5.65063V7.97183H5.77925ZM8.60443 4.75H11.1551V5.54438H9.56525V6.42414H10.9335V7.22501H9.56525V8.75H8.60443V4.75Z" fill="#FDFEFF"/>
</svg>
