<svg width="600" height="160" viewBox="0 0 600 160" fill="none" xmlns="http://www.w3.org/2000/svg">
<mask id="mask0_11030_390" style="mask-type:alpha" maskUnits="userSpaceOnUse" x="0" y="0" width="600" height="160">
<path d="M0 18C0 8.05888 8.05887 0 18 0H582C591.941 0 600 8.05887 600 18V142C600 151.941 591.941 160 582 160H18C8.05886 160 0 151.941 0 142V18Z" fill="#B19A6C"/>
</mask>
<g mask="url(#mask0_11030_390)">
<g filter="url(#filter0_d_11030_390)">
<path d="M0 4C0 1.79086 1.79086 0 4 0H596C598.209 0 600 1.79086 600 4V156C600 158.209 598.209 160 596 160H4C1.79086 160 0 158.209 0 156V4Z" fill="url(#paint0_linear_11030_390)"/>
</g>
<rect x="338.399" y="-822" width="493.051" height="1696.21" transform="rotate(45 338.399 -822)" fill="url(#paint1_linear_11030_390)"/>
<rect x="469.362" y="-221" width="43.0364" height="881.566" transform="rotate(45 469.362 -221)" fill="url(#paint2_linear_11030_390)"/>
<rect x="991.399" y="-401" width="244.462" height="1696.21" transform="rotate(45 991.399 -401)" fill="url(#paint3_linear_11030_390)"/>
</g>
<defs>
<filter id="filter0_d_11030_390" x="-10" y="-10" width="620" height="180" filterUnits="userSpaceOnUse" color-interpolation-filters="sRGB">
<feFlood flood-opacity="0" result="BackgroundImageFix"/>
<feColorMatrix in="SourceAlpha" type="matrix" values="0 0 0 0 0 0 0 0 0 0 0 0 0 0 0 0 0 0 127 0" result="hardAlpha"/>
<feOffset/>
<feGaussianBlur stdDeviation="5"/>
<feComposite in2="hardAlpha" operator="out"/>
<feColorMatrix type="matrix" values="0 0 0 0 1 0 0 0 0 0.78 0 0 0 0 0 0 0 0 0.58 0"/>
<feBlend mode="normal" in2="BackgroundImageFix" result="effect1_dropShadow_11030_390"/>
<feBlend mode="normal" in="SourceGraphic" in2="effect1_dropShadow_11030_390" result="shape"/>
</filter>
<linearGradient id="paint0_linear_11030_390" x1="600" y1="80.0001" x2="-8.07524e-06" y2="80.0001" gradientUnits="userSpaceOnUse">
<stop stop-color="#FFF1CC"/>
<stop offset="0.503402" stop-color="#FFDF9F"/>
<stop offset="1" stop-color="#D8954B"/>
</linearGradient>
<linearGradient id="paint1_linear_11030_390" x1="659.143" y1="-60.871" x2="659.143" y2="345.008" gradientUnits="userSpaceOnUse">
<stop stop-color="white" stop-opacity="0.5"/>
<stop offset="1" stop-color="white" stop-opacity="0"/>
</linearGradient>
<linearGradient id="paint2_linear_11030_390" x1="489.947" y1="41.0611" x2="489.947" y2="256.051" gradientUnits="userSpaceOnUse">
<stop stop-color="white" stop-opacity="0.5"/>
<stop offset="1" stop-color="white" stop-opacity="0"/>
</linearGradient>
<linearGradient id="paint3_linear_11030_390" x1="1065.73" y1="101.749" x2="1065.73" y2="494.193" gradientUnits="userSpaceOnUse">
<stop stop-color="white" stop-opacity="0.5"/>
<stop offset="1" stop-color="white" stop-opacity="0"/>
</linearGradient>
</defs>
</svg>
