<svg width="1360" height="400" viewBox="0 0 1360 400" fill="none" xmlns="http://www.w3.org/2000/svg">
<mask id="mask0_7675_9971" style="mask-type:alpha" maskUnits="userSpaceOnUse" x="0" y="0" width="1360" height="400">
<path d="M0 18C0 8.05888 8.05888 0 18 0H1342C1351.94 0 1360 8.05888 1360 18V382C1360 391.941 1351.94 400 1342 400H18C8.05884 400 0 391.941 0 382V18Z" fill="url(#paint0_linear_7675_9971)"/>
</mask>
<g mask="url(#mask0_7675_9971)">
<g filter="url(#filter0_f_7675_9971)">
<path d="M-356.399 -100.579C-356.399 -115.07 -344.652 -126.817 -330.161 -126.817H1663.92C1678.41 -126.817 1690.16 -115.07 1690.16 -100.579V581.608C1690.16 596.099 1678.41 607.846 1663.92 607.846H-330.161C-344.652 607.846 -356.399 596.099 -356.399 581.608V-100.579Z" fill="url(#paint1_linear_7675_9971)" fill-opacity="0.3"/>
</g>
<path opacity="0.5" d="M1 18C1 8.61117 8.61116 1 18 1H1342C1351.39 1 1359 8.61115 1359 18V382C1359 391.389 1351.39 399 1342 399H18C8.61113 399 1 391.389 1 382V18Z" stroke="#BE98D4" stroke-width="2"/>
<rect opacity="0.5" x="583.399" y="-766" width="493.051" height="1696.21" transform="rotate(45 583.399 -766)" fill="url(#paint2_linear_7675_9971)" fill-opacity="0.2"/>
<rect opacity="0.5" x="966.035" y="-385.55" width="82.8056" height="1696.21" transform="rotate(45 966.035 -385.55)" fill="url(#paint3_linear_7675_9971)" fill-opacity="0.2"/>
<rect opacity="0.5" x="1662.94" y="-282.058" width="244.462" height="1696.21" transform="rotate(45 1662.94 -282.058)" fill="url(#paint4_linear_7675_9971)" fill-opacity="0.2"/>
</g>
<defs>
<filter id="filter0_f_7675_9971" x="-465.724" y="-236.141" width="2265.21" height="953.312" filterUnits="userSpaceOnUse" color-interpolation-filters="sRGB">
<feFlood flood-opacity="0" result="BackgroundImageFix"/>
<feBlend mode="normal" in="SourceGraphic" in2="BackgroundImageFix" result="shape"/>
<feGaussianBlur stdDeviation="54.6624" result="effect1_foregroundBlur_7675_9971"/>
</filter>
<linearGradient id="paint0_linear_7675_9971" x1="662.6" y1="0" x2="662.6" y2="404.11" gradientUnits="userSpaceOnUse">
<stop stop-color="#B19A6C"/>
<stop offset="0.1875" stop-color="#564121"/>
<stop offset="0.328125" stop-color="#34260D"/>
<stop offset="1" stop-color="#201A15" stop-opacity="0"/>
</linearGradient>
<linearGradient id="paint1_linear_7675_9971" x1="640.697" y1="-126.817" x2="640.697" y2="615.394" gradientUnits="userSpaceOnUse">
<stop stop-color="#FFC0DE"/>
<stop offset="0.119133" stop-color="#EDA7E6"/>
<stop offset="0.296328" stop-color="#5F2F63" stop-opacity="0.8"/>
<stop offset="1" stop-color="#201A15" stop-opacity="0"/>
</linearGradient>
<linearGradient id="paint2_linear_7675_9971" x1="876.943" y1="-8.20544" x2="1142.87" y2="257.721" gradientUnits="userSpaceOnUse">
<stop stop-color="white" stop-opacity="0.66"/>
<stop offset="1" stop-color="white" stop-opacity="0"/>
</linearGradient>
<linearGradient id="paint3_linear_7675_9971" x1="976.009" y1="103.862" x2="1207.64" y2="304.453" gradientUnits="userSpaceOnUse">
<stop stop-color="white" stop-opacity="0.94"/>
<stop offset="1" stop-color="white" stop-opacity="0"/>
</linearGradient>
<linearGradient id="paint4_linear_7675_9971" x1="1279.43" y1="2.49727" x2="1239.19" y2="469.511" gradientUnits="userSpaceOnUse">
<stop stop-color="white"/>
<stop offset="1" stop-color="white" stop-opacity="0"/>
</linearGradient>
</defs>
</svg>
