<svg width="12" height="12" viewBox="0 0 12 12" fill="none" xmlns="http://www.w3.org/2000/svg">
<path d="M1.76672 4.5835L2.47382 5.2906L6.00695 1.75747L9.54249 5.29301L10.2496 4.5859L6.00695 0.343262L1.76672 4.5835Z" fill="white"/>
<path d="M1.76431 7.41433L6.00695 11.657L10.2496 7.41433L9.54249 6.70722L6.00695 10.2428L2.47142 6.70722L1.76431 7.41433Z" fill="white"/>
<path d="M1.76672 5.99771L1.76431 6.00012L1.76683 6.00264L1.05973 6.70975L0.350098 6.00012L1.05961 5.2906L1.76672 5.99771Z" fill="white"/>
<path d="M10.9546 6.70933L10.2475 6.00222L10.2496 6.00012L10.2475 5.99801L10.9546 5.2909L11.6638 6.00012L10.9546 6.70933Z" fill="white"/>
<path d="M6.99984 5.99653L6.99644 5.99992L7 6.00347L6.00178 7L5 5.99992L6.00162 5L6.99984 5.99653Z" fill="white"/>
</svg>
