<svg fill="none" height="24" viewBox="0 0 24 24" width="24" xmlns="http://www.w3.org/2000/svg" xmlns:xlink="http://www.w3.org/1999/xlink"><clipPath id="a"><path d="m0 0h24v24h-24z"/></clipPath><g clip-path="url(#a)"><path d="m22.86 5.208c-.36.156-.732.288-1.116.396.444-.492.78-1.08.984-1.716l.288-.888-.804.48c-.78.468-1.62.792-2.508.984-.888-.864-2.088-1.356-3.324-1.356h-.012c-2.628 0-4.764 2.136-4.764 4.764 0 .204.012.42.036.636-3.276-.288-6.336-1.908-8.412-4.464l-.324-.396-.252.432c-.432.732-.648 1.56-.648 2.4 0 1.14.408 2.244 1.14 3.096-.228-.084-.444-.18-.648-.288l-.516-.288v.648c0 1.704.912 3.264 2.352 4.116-.132-.012-.264-.024-.408-.048l-.564-.084.18.54c.528 1.632 1.86 2.832 3.504 3.192-1.344.84-2.928 1.296-4.5 1.296-.42 0-.744-.012-1.044-.048l-1.5-.168 1.272.816c2.076 1.332 4.476 2.04 6.936 2.04h.036c4.848 0 7.896-2.292 9.588-4.212 2.112-2.4 3.324-5.568 3.324-8.7 0-.132 0-.264 0-.408.828-.636 1.548-1.392 2.136-2.256l.696-1.008zm-3.684 2.712c.012.132.012.276.012.42v.036c0 4.536-3.396 10.932-10.932 10.932-.192 0-.396 0-.588-.012.48-.264.936-.564 1.356-.9.336-.264.552-.648.6-1.08s-.072-.852-.336-1.188c-.3-.384-.744-.6-1.236-.612-.408-.012-.792-.096-1.14-.264.144-.12.276-.264.372-.432.216-.372.288-.804.18-1.224-.156-.6-.636-1.068-1.248-1.188-.516-.108-.984-.348-1.356-.708.66-.216 1.104-.828 1.104-1.536 0-.54-.264-1.044-.72-1.344-.408-.276-.744-.648-.96-1.092 2.244 1.656 5.004 2.64 7.8 2.772.432 0 .84-.168 1.14-.48s.468-.708.468-1.14c0-.108-.012-.216-.036-.324-.048-.228-.072-.456-.072-.684 0-1.536 1.26-2.796 2.796-2.796.78 0 1.512.312 2.04.876.12.132.264.24.42.324.012.372.168.744.408 1.02-.06.192-.084.408-.072.624z" fill="#ffe7ab"/></g></svg>