<svg width="30" height="30" viewBox="0 0 30 30" fill="none" xmlns="http://www.w3.org/2000/svg">
<path d="M17.962 24.9145V28.2761L14.9572 30L12.0409 28.2761V24.9145L14.9572 26.6384L17.962 24.9145ZM1.875 13.2754L4.79135 14.9993V20.7758L9.83011 23.7064V27.068L1.875 22.4997V13.2754ZM28.0381 13.2754V22.4997L19.9946 27.068V23.7064L25.0333 20.7758V14.9993L28.0381 13.2754ZM19.9946 8.70708L22.9993 10.431V13.7926L17.9605 16.7232V22.5858L15.0442 24.3097L12.1278 22.5858V16.7232L6.91233 13.7926V10.431L9.91706 8.70708L14.9558 11.6377L19.9946 8.70708ZM6.91376 16.2074L9.83011 17.9313V21.2929L6.91376 19.569V16.2074ZM23.0007 16.2074V19.569L20.0844 21.2929V17.9313L23.0007 16.2074ZM4.79135 5.77645L7.79607 7.50035L4.79135 9.22425V12.5858L1.875 10.8619V7.50035L4.79135 5.77645ZM25.1203 5.77645L28.125 7.50035V10.8619L25.1203 12.5858V9.22425L22.2039 7.50035L25.1203 5.77645ZM14.9558 5.77645L17.9605 7.50035L14.9558 9.22425L12.0395 7.50035L14.9558 5.77645ZM14.9558 0L22.9993 4.56833L20.0829 6.29223L15.0442 3.3616L9.91706 6.29223L7.00071 4.56833L14.9558 0Z" fill="#F3BA2F"/>
</svg>
