<svg width="30" height="30" viewBox="0 0 30 30" fill="none" xmlns="http://www.w3.org/2000/svg">
<path d="M24.9719 16.9378V16.9717L24.9742 17.0054C25.2381 20.8995 23.4587 24.4708 20.6117 26.5266C20.7921 24.9648 20.6029 23.4761 20.0447 22.1262C19.2183 20.1278 17.6228 18.5294 15.4343 17.4742L14.1193 16.8402L14.0032 18.2955C13.8893 19.7225 13.5357 20.6412 13.1205 21.3062C12.6969 21.9844 12.1797 22.4534 11.592 22.9864L11.5814 22.9961L11.5653 23.0107C11.0035 23.5201 10.3266 24.1339 9.89639 25.0219C9.66518 25.4991 9.51716 26.0254 9.46056 26.6231C6.77705 24.7818 5 21.6401 5 18.0643C5 14.1355 6.71324 12.2448 8.55664 10.2169L8.5847 10.186C9.49826 9.18104 10.4929 8.08694 11.1975 6.71137C11.7592 5.61473 12.1269 4.36377 12.1874 2.84805C16.2516 4.21019 18.3348 6.47778 19.4664 8.54054C20.0982 9.69205 20.4479 10.8074 20.6651 11.7196C20.7739 12.1767 20.8488 12.5794 20.9116 12.9201C20.9158 12.9429 20.9201 12.966 20.9244 12.9893C20.9762 13.2714 21.0351 13.5926 21.112 13.8154L21.6645 15.4178L22.7999 14.1593C23.0588 13.8723 23.2791 13.4691 23.4556 13.0927C23.5852 12.8163 23.7107 12.5112 23.8273 12.1966C24.6175 14.2823 24.9719 16.0668 24.9719 16.9378Z" stroke="#A5A6AB" stroke-width="2"/>
</svg>
