<svg width="30" height="30" viewBox="0 0 30 30" fill="none" xmlns="http://www.w3.org/2000/svg">
<path d="M22.201 10.3353C21.6893 10.0504 21.0313 10.0504 20.4465 10.3353L16.3525 12.6855L13.5744 14.181L9.55353 16.5312C9.04178 16.816 8.38381 16.816 7.79896 16.5312L4.65535 14.6795C4.1436 14.3947 3.77807 13.8249 3.77807 13.184V9.62315C3.77807 9.05341 4.0705 8.48368 4.65535 8.1276L7.79896 6.34718C8.31071 6.06231 8.96867 6.06231 9.55353 6.34718L12.6971 8.19881C13.2089 8.48368 13.5744 9.05341 13.5744 9.69436V12.0445L16.3525 10.4777V8.05638C16.3525 7.48665 16.0601 6.91691 15.4752 6.56083L9.62663 3.21365C9.11488 2.92878 8.45692 2.92878 7.87206 3.21365L1.87728 6.63205C1.29243 6.91691 1 7.48665 1 8.05638V14.7507C1 15.3205 1.29243 15.8902 1.87728 16.2463L7.79896 19.5935C8.31071 19.8783 8.96867 19.8783 9.55353 19.5935L13.5744 17.3145L16.3525 15.7478L20.3734 13.4688C20.8851 13.184 21.5431 13.184 22.1279 13.4688L25.2715 15.2493C25.7833 15.5341 26.1488 16.1039 26.1488 16.7448V20.3056C26.1488 20.8754 25.8564 21.4451 25.2715 21.8012L22.201 23.5816C21.6893 23.8665 21.0313 23.8665 20.4465 23.5816L17.3029 21.8012C16.7911 21.5163 16.4256 20.9466 16.4256 20.3056V18.0267L13.6475 19.5935V21.9436C13.6475 22.5134 13.9399 23.0831 14.5248 23.4392L20.4465 26.7864C20.9582 27.0712 21.6162 27.0712 22.201 26.7864L28.1227 23.4392C28.6345 23.1543 29 22.5846 29 21.9436V15.178C29 14.6083 28.7076 14.0386 28.1227 13.6825L22.201 10.3353Z" fill="#8247E5"/>
</svg>
