<svg width="705" height="150" viewBox="0 0 705 150" fill="none" xmlns="http://www.w3.org/2000/svg">
<g clip-path="url(#clip0_178_1717)">
<path d="M288.142 27.6243C288.142 27.4862 288.142 27.4862 288.142 27.3481V27.21C288.142 27.0719 288.142 26.9337 288.142 26.9337C288.142 26.7956 288.004 26.6575 288.004 26.6575C287.867 26.5194 287.867 26.5194 287.729 26.3813C283.738 23.7569 258.695 28.5912 222.505 38.5359C216.038 40.1934 209.157 37.7072 205.442 32.3205C187.003 5.5249 152.74 -6.90604 120.541 3.86744C88.3415 14.6409 68.389 45.1658 69.4898 77.4862C69.765 84.1161 65.6369 90.1934 59.5823 92.8177C24.7686 106.63 1.78885 117.68 0.137604 122.238C0 122.376 0 122.514 0 122.652C0 122.79 0 122.928 0 123.066C0 123.204 0.137604 123.204 0.137604 123.343L0.275207 123.481L0.412811 123.619C0.550414 123.619 0.550414 123.757 0.688018 123.757C0.963225 123.895 1.23843 124.033 1.51364 124.033C8.53142 125.691 37.4282 119.613 77.058 108.287L77.3332 108.149C98.3865 102.21 122.33 94.7514 147.649 86.326C172.968 77.9006 196.635 69.337 217.001 61.6022L217.276 61.4641C255.805 46.6851 282.638 34.2542 287.179 28.7293C287.454 28.4531 287.591 28.1768 287.729 27.9006C288.142 27.9006 288.142 27.7625 288.142 27.6243ZM128.797 28.7293C150.401 21.547 173.656 30.5249 185.214 49.1713C171.041 53.4531 155.905 58.2873 140.218 63.5359C124.531 68.7846 109.67 73.8951 95.6345 79.0056C93.9832 57.1824 107.193 35.9116 128.797 28.7293Z" fill="#5933E1"/>
<path d="M159.483 121.133C139.53 127.762 118.201 120.58 105.955 104.834C96.8729 107.597 88.0663 110.221 79.6725 112.569C97.0105 142.541 133.613 157.32 167.739 145.994C201.864 134.668 222.367 100.829 218.377 66.2983C210.121 69.4751 201.589 72.6519 192.645 75.8287C192.232 95.9945 179.435 114.503 159.483 121.133Z" fill="#5933E1"/>
<path d="M369.205 45.4137C372.227 45.4137 375.112 46.103 378.134 47.3438C381.019 48.5846 383.767 50.5148 386.102 52.7207C388.437 55.0644 390.36 57.6839 391.734 60.8549C393.108 64.0258 393.932 67.3346 393.932 70.7813C393.932 74.3659 393.245 77.6747 392.009 80.8457C390.772 84.0166 388.987 86.774 386.789 88.9799C384.591 91.3236 381.981 93.1159 378.959 94.4946C375.936 95.8732 372.777 96.5626 369.343 96.5626C368.381 96.5626 366.87 96.5626 364.809 96.5626C362.749 96.5626 360.551 96.5626 358.49 96.5626C356.018 96.5626 353.27 96.7004 350.385 96.7004V118.897H335V45.4137H362.474H369.205ZM369.068 82.9137C371.953 82.3622 374.425 80.9835 376.211 78.9155C377.997 76.8475 378.959 74.228 378.959 70.7813C378.959 67.4725 377.997 64.853 376.211 62.9229C374.425 60.9927 372.09 59.7519 369.068 59.2005C368.931 59.2005 368.381 59.2005 367.832 59.2005C367.145 59.2005 366.32 59.2005 365.496 59.0626C364.535 59.0626 363.573 59.0626 362.474 59.0626C361.375 59.0626 360.276 59.0626 359.177 59.0626C356.567 59.0626 353.682 59.0626 350.385 59.2005V60.1655V83.0516C353.408 83.0516 356.292 83.1894 358.902 83.1894C361.1 83.1894 363.298 83.1894 365.359 83.1894C367.145 83.0516 368.381 83.0516 369.068 82.9137Z" fill="#5933E1"/>
<path d="M442.149 120C437.066 120 432.258 119.035 427.863 117.105C423.467 115.175 419.483 112.417 416.186 109.108C412.889 105.662 410.142 101.664 408.219 97.114C406.295 92.5643 405.334 87.6011 405.334 82.5C405.334 77.3989 406.295 72.4357 408.219 67.886C410.142 63.3364 412.752 59.3382 416.186 55.8915C419.483 52.4449 423.467 49.8254 427.863 47.8952C432.258 45.9651 437.066 45 442.149 45C447.232 45 452.04 45.9651 456.436 47.8952C460.831 49.8254 464.815 52.5827 468.112 55.8915C471.409 59.3382 474.156 63.3364 476.08 67.886C478.003 72.4357 478.964 77.3989 478.964 82.5C478.964 87.6011 478.003 92.5643 476.08 97.114C474.156 101.664 471.546 105.662 468.112 109.108C464.815 112.555 460.831 115.175 456.436 117.105C451.902 119.035 447.232 120 442.149 120ZM442.149 60.3033C439.264 60.3033 436.517 60.8548 433.907 61.9577C431.434 63.0607 429.099 64.7151 427.176 66.6452C425.252 68.7132 423.741 71.057 422.642 73.6765C421.543 76.296 420.994 79.1912 420.994 82.2243C420.994 85.2574 421.543 88.1526 422.642 90.7721C423.741 93.3915 425.252 95.7353 427.176 97.8033C429.099 99.8713 431.297 101.388 433.907 102.491C436.379 103.594 439.127 104.145 442.149 104.145C445.034 104.145 447.781 103.594 450.391 102.491C452.864 101.388 455.199 99.7335 457.122 97.8033C459.046 95.7353 460.557 93.3915 461.656 90.7721C462.755 88.1526 463.304 85.2574 463.304 82.2243C463.304 79.1912 462.755 76.4338 461.656 73.6765C460.557 71.057 459.046 68.5754 457.122 66.6452C455.199 64.5772 453.001 63.0607 450.391 61.9577C447.781 60.8548 445.034 60.3033 442.149 60.3033Z" fill="#5933E1"/>
<path d="M538.858 119.035L524.571 96.5626C523.06 96.5626 521.412 96.7005 519.626 96.7005C517.84 96.7005 516.054 96.7005 514.543 96.7005H508.911V119.035H493.526V45.4137H528.143C531.577 45.4137 534.874 46.103 537.759 47.3438C540.781 48.5846 543.391 50.5148 545.589 52.7207C547.787 55.0644 549.435 57.6839 550.809 60.8549C552.045 64.0258 552.732 67.3346 552.732 70.7813C552.732 75.6067 551.633 79.7427 549.435 83.0516C547.238 86.3604 544.215 89.3935 540.506 91.8751L558.365 118.897H538.858V119.035ZM508.911 82.9137C511.659 82.9137 514.406 83.0516 517.016 83.0516C519.077 83.0516 521.274 83.0516 523.335 83.0516C525.396 83.0516 527.044 83.0516 528.143 82.9137C530.89 82.638 533.088 81.2593 534.874 79.0534C536.66 76.8475 537.484 74.0902 537.484 70.7813C537.484 67.4725 536.66 64.853 534.874 62.9229C533.088 60.9927 530.89 59.8898 528.143 59.4762C527.044 59.3383 525.396 59.2005 523.335 59.2005C521.274 59.2005 519.077 59.2005 517.016 59.2005C514.543 59.2005 511.933 59.2005 509.048 59.3383V82.9137H508.911Z" fill="#5933E1"/>
<path d="M610.84 58.9247H595.042V118.897H579.657V58.9247H563.585V45.4137H579.52H594.905H610.703V58.9247H610.84Z" fill="#5933E1"/>
<path d="M466.155 64.4147L412.659 86.1057L418.217 99.9114L471.712 78.2205L466.155 64.4147Z" fill="#5933E1"/>
<path d="M662.079 74.2279C667.437 75.6066 671.832 78.2261 675.267 81.8106C678.701 85.3952 680.349 89.6691 680.349 94.7702C680.349 102.215 677.602 108.005 672.107 112.142C666.612 116.278 659.881 118.346 651.914 118.346C645.732 118.346 640.1 117.105 635.292 114.485C630.347 111.866 626.912 108.143 624.714 103.18L638.177 96.1489C640.1 101.664 644.77 104.421 652.051 104.421C656.035 104.421 659.194 103.594 661.392 101.801C663.59 100.009 664.689 97.6654 664.689 94.6323C664.689 91.7371 663.59 89.3934 661.392 87.6011C659.194 85.8088 656.035 84.9816 652.051 84.9816H648.617L642.573 76.7095L658.233 58.2353H627.05V45H677.053V56.7187L662.079 74.2279Z" fill="#5933E1"/>
</g>
<defs>
<clipPath id="clip0_178_1717">
<rect width="705" height="150" fill="white"/>
</clipPath>
</defs>
</svg>
