<svg width="20" height="20" viewBox="0 0 20 20" fill="none" xmlns="http://www.w3.org/2000/svg">
<path d="M9.30027 0.685356C9.68905 0.304565 10.311 0.304565 10.6997 0.685356L12.6594 2.60476C12.8437 2.78531 13.0907 2.88762 13.3487 2.8903L16.0917 2.91877C16.6358 2.92442 17.0756 3.36417 17.0812 3.90834L17.1097 6.65125C17.1124 6.90927 17.2147 7.15627 17.3952 7.34061L19.3146 9.30027C19.6954 9.68905 19.6954 10.311 19.3146 10.6997L17.3952 12.6594C17.2147 12.8437 17.1124 13.0907 17.1097 13.3487L17.0812 16.0917C17.0756 16.6358 16.6358 17.0756 16.0917 17.0812L13.3487 17.1097C13.0907 17.1124 12.8437 17.2147 12.6594 17.3952L10.6997 19.3146C10.311 19.6954 9.68905 19.6954 9.30027 19.3146L7.34061 17.3952C7.15627 17.2147 6.90927 17.1124 6.65125 17.1097L3.90834 17.0812C3.36417 17.0756 2.92442 16.6358 2.91877 16.0917L2.8903 13.3487C2.88762 13.0907 2.78531 12.8437 2.60476 12.6594L0.685356 10.6997C0.304565 10.311 0.304565 9.68905 0.685356 9.30027L2.60476 7.34061C2.78531 7.15627 2.88762 6.90927 2.8903 6.65125L2.91877 3.90834C2.92442 3.36417 3.36417 2.92442 3.90834 2.91877L6.65125 2.8903C6.90927 2.88762 7.15627 2.78531 7.34061 2.60476L9.30027 0.685356Z" fill="#43BBFF"/>
<path d="M13.63 7.70053L9.12909 12.2014L6.42856 9.50088" stroke="white" stroke-width="1.4"/>
</svg>
