<svg width="14" height="14" viewBox="0 0 14 14" fill="none" xmlns="http://www.w3.org/2000/svg">
<path fill-rule="evenodd" clip-rule="evenodd" d="M8.23535 0L5.71119e-05 8.23529L1.71724 9.95248C2.36652 9.64255 3.16758 9.75645 3.7053 10.2942C4.24303 10.8319 4.35693 11.633 4.047 12.2822L5.76476 14L14.0001 5.76471L12.2826 4.0472C11.6331 4.35764 10.8316 4.24388 10.2936 3.70591C9.75567 3.16795 9.6419 2.36642 9.95234 1.71699L8.23535 0ZM7.41172 4.11763L4.11761 7.41175L4.94114 8.23528L8.23525 4.94116L7.41172 4.11763ZM9.05827 5.76469L5.76415 9.05881L6.58768 9.88234L9.8818 6.58822L9.05827 5.76469Z" fill="#F2B8B0"/>
</svg>
