<svg width="16" height="16" viewBox="0 0 16 16" fill="none" xmlns="http://www.w3.org/2000/svg">
<path d="M14.1748 4.01855C14.1873 4.02324 14.1967 4.02949 14.2092 4.03418L14.2154 3.98262L14.1748 4.01855ZM1.62637 4.01074C1.63262 4.00762 1.64043 4.00605 1.64668 4.00137L1.62012 3.97949L1.62637 4.01074ZM13.6529 4.6373C13.542 4.6373 13.442 4.68105 13.3686 4.75137C13.3639 4.75605 13.3623 4.75449 13.3639 4.74824L10.6186 7.2248L8.38262 2.74512C8.27793 2.60605 8.11231 2.51855 7.92481 2.51855C7.70606 2.51855 7.51543 2.64199 7.41855 2.82168L5.22012 7.2248L2.3873 4.66855C2.32793 4.63574 2.25918 4.61699 2.18574 4.61699C1.95918 4.61699 1.77637 4.80137 1.77637 5.02637C1.77637 5.04512 1.77324 5.05449 1.76699 5.05449L2.64355 11.6029C2.64355 11.5779 2.64199 11.5529 2.63887 11.5264C2.69199 11.9826 2.9998 12.3607 3.41387 12.517C3.37637 12.5029 3.33887 12.492 3.30449 12.4857C4.18418 12.8154 5.91074 13.0295 7.89981 13.0107C9.89824 12.9936 11.6404 12.7467 12.5326 12.3982C12.4998 12.4045 12.4654 12.4139 12.4279 12.4279C12.842 12.2701 13.1498 11.892 13.2029 11.4357C13.1967 11.4889 13.1967 11.5389 13.1998 11.5842L14.0701 5.07012C14.067 5.06699 14.0639 5.05762 14.0639 5.04355C14.0639 4.82168 13.8811 4.6373 13.6529 4.6373Z" fill="#838383"/>
</svg>
