<svg width="16" height="16" viewBox="0 0 16 16" fill="none" xmlns="http://www.w3.org/2000/svg">
<path d="M6.50007 7.74106H5.11317V9.12796H6.50007V7.74106ZM8.69352 7.74106H7.30662V9.12796H8.69352V7.74106ZM11 7.74106H9.6131V9.12796H11V7.74106ZM12.3869 2.8869H11.6935V1.5H10.3066V2.8869H5.8066V1.5H4.4197V2.8869H3.72626C2.95652 2.8869 2.34629 3.511 2.34629 4.2738L2.33936 12.4346C2.33936 13.1974 2.95652 13.8215 3.72626 13.8215H12.3869C13.1497 13.8215 13.7738 13.1974 13.7738 12.4346V4.2738C13.7738 3.511 13.1497 2.8869 12.3869 2.8869ZM12.3869 12.4346H3.72626V6.35417H12.3869V12.4346Z" fill="#838383"/>
</svg>
